<svg width="291" height="186" viewBox="0 0 291 186" fill="none" xmlns="http://www.w3.org/2000/svg">
<path fill-rule="evenodd" clip-rule="evenodd" d="M115.252 9.47653C103.491 21.2376 103.491 40.3062 115.252 52.0673L125.041 61.8558C142.208 79.0229 142.208 106.856 125.041 124.023L115.252 133.812C103.491 145.573 103.491 164.642 115.252 176.403V176.403C127.014 188.164 146.082 188.164 157.843 176.403L188.927 145.319C217.855 116.391 217.855 69.4886 188.927 40.5604L157.843 9.47652C146.082 -2.2846 127.014 -2.28459 115.252 9.47653V9.47653Z" fill="black"/>
<path fill-rule="evenodd" clip-rule="evenodd" d="M7.58806 20.8956C-2.52936 31.013 -2.52934 47.4166 7.58808 57.5341L16.0049 65.9509C30.7708 80.7168 30.7708 104.657 16.0049 119.423L7.58807 127.84C-2.52935 137.957 -2.52936 154.361 7.58806 164.478V164.478C17.7055 174.596 34.1091 174.596 44.2265 164.478L70.9625 137.742C95.8459 112.859 95.8458 72.515 70.9625 47.6317L44.2265 20.8956C34.109 10.7782 17.7055 10.7782 7.58806 20.8956V20.8956Z" fill="black"/>
<path fill-rule="evenodd" clip-rule="evenodd" d="M282.178 176.401C270.417 188.162 251.349 188.162 239.587 176.401L208.504 145.317C179.575 116.389 179.575 69.4871 208.504 40.5589L239.587 9.47501C251.349 -2.28611 270.417 -2.2861 282.178 9.47502V9.47502C293.939 21.2361 293.939 40.3047 282.178 52.0658L272.39 61.8543C255.223 79.0214 255.223 106.855 272.39 124.022L282.178 133.81C293.939 145.572 293.939 164.64 282.178 176.401V176.401Z" fill="black"/>
<path fill-rule="evenodd" clip-rule="evenodd" d="M282.178 9.47887C270.416 -2.28297 251.346 -2.283 239.584 9.47885L229.798 19.2647C212.632 36.4311 184.8 36.4311 167.633 19.2647L157.847 9.47887C146.086 -2.28298 127.016 -2.28298 115.254 9.47887V9.47887C103.492 21.2407 103.492 40.3104 115.254 52.0723L146.337 83.1548C175.265 112.083 222.167 112.083 251.095 83.1548L282.178 52.0723C293.939 40.3104 293.939 21.2407 282.178 9.47887V9.47887Z" fill="black"/>
<path fill-rule="evenodd" clip-rule="evenodd" d="M115.254 176.401C127.016 188.162 146.086 188.162 157.847 176.401L167.633 166.615C184.8 149.448 212.632 149.448 229.798 166.615L239.584 176.401C251.346 188.162 270.416 188.162 282.178 176.401V176.401C293.939 164.639 293.939 145.569 282.178 133.807L251.095 102.725C222.167 73.7963 175.265 73.7963 146.337 102.725L115.254 133.807C103.492 145.569 103.492 164.639 115.254 176.401V176.401Z" fill="black"/>
</svg>
